<mxfile host="app.diagrams.net" agent="Mozilla/5.0 (Macintosh; Intel Mac OS X 10_15_7) AppleWebKit/537.36 (KHTML, like Gecko) Chrome/131.0.0.0 Safari/537.36" version="25.0.1">
  <diagram name="Sayfa -1" id="-AKyciv_Uyou7xk1GQxb">
    <mxGraphModel dx="1084" dy="593" grid="1" gridSize="10" guides="1" tooltips="1" connect="1" arrows="1" fold="1" page="1" pageScale="1" pageWidth="850" pageHeight="1100" math="0" shadow="0">
      <root>
        <mxCell id="0" />
        <mxCell id="1" parent="0" />
        <mxCell id="408nA-Bblptvo8XibSW0-1" value=":Player" style="rounded=0;whiteSpace=wrap;html=1;" vertex="1" parent="1">
          <mxGeometry x="160" y="140" width="120" height="60" as="geometry" />
        </mxCell>
        <mxCell id="408nA-Bblptvo8XibSW0-2" value=":Hall" style="rounded=0;whiteSpace=wrap;html=1;" vertex="1" parent="1">
          <mxGeometry x="380" y="140" width="120" height="60" as="geometry" />
        </mxCell>
        <mxCell id="408nA-Bblptvo8XibSW0-3" value=":Lighting" style="rounded=0;whiteSpace=wrap;html=1;" vertex="1" parent="1">
          <mxGeometry x="580" y="140" width="120" height="60" as="geometry" />
        </mxCell>
        <mxCell id="408nA-Bblptvo8XibSW0-4" value="" style="endArrow=classic;html=1;rounded=0;" edge="1" parent="1">
          <mxGeometry width="50" height="50" relative="1" as="geometry">
            <mxPoint x="220" y="230" as="sourcePoint" />
            <mxPoint x="440" y="230" as="targetPoint" />
          </mxGeometry>
        </mxCell>
        <mxCell id="408nA-Bblptvo8XibSW0-5" value="" style="endArrow=classic;html=1;rounded=0;" edge="1" parent="1">
          <mxGeometry width="50" height="50" relative="1" as="geometry">
            <mxPoint x="215.5" y="290" as="sourcePoint" />
            <mxPoint x="640" y="290" as="targetPoint" />
          </mxGeometry>
        </mxCell>
        <mxCell id="408nA-Bblptvo8XibSW0-6" value="" style="endArrow=classic;html=1;rounded=0;" edge="1" parent="1">
          <mxGeometry width="50" height="50" relative="1" as="geometry">
            <mxPoint x="225" y="329" as="sourcePoint" />
            <mxPoint x="645" y="329" as="targetPoint" />
          </mxGeometry>
        </mxCell>
        <mxCell id="408nA-Bblptvo8XibSW0-7" value="" style="endArrow=none;dashed=1;html=1;rounded=0;entryX=0.5;entryY=1;entryDx=0;entryDy=0;" edge="1" parent="1" source="408nA-Bblptvo8XibSW0-12">
          <mxGeometry width="50" height="50" relative="1" as="geometry">
            <mxPoint x="220" y="480" as="sourcePoint" />
            <mxPoint x="219.5" y="190" as="targetPoint" />
            <Array as="points">
              <mxPoint x="219.5" y="190" />
            </Array>
          </mxGeometry>
        </mxCell>
        <mxCell id="408nA-Bblptvo8XibSW0-8" value="" style="endArrow=none;dashed=1;html=1;rounded=0;entryX=0.5;entryY=1;entryDx=0;entryDy=0;" edge="1" parent="1">
          <mxGeometry width="50" height="50" relative="1" as="geometry">
            <mxPoint x="640" y="260" as="sourcePoint" />
            <mxPoint x="639.5" y="190" as="targetPoint" />
          </mxGeometry>
        </mxCell>
        <mxCell id="408nA-Bblptvo8XibSW0-9" value="openDoor()" style="text;html=1;align=center;verticalAlign=middle;resizable=0;points=[];autosize=1;strokeColor=none;fillColor=none;" vertex="1" parent="1">
          <mxGeometry x="290" y="200" width="80" height="30" as="geometry" />
        </mxCell>
        <mxCell id="408nA-Bblptvo8XibSW0-10" value="turnOffLights()" style="text;html=1;align=center;verticalAlign=middle;resizable=0;points=[];autosize=1;strokeColor=none;fillColor=none;" vertex="1" parent="1">
          <mxGeometry x="295" y="270" width="100" height="30" as="geometry" />
        </mxCell>
        <mxCell id="408nA-Bblptvo8XibSW0-11" value="&lt;span style=&quot;background-color: initial;&quot;&gt;dimLights()&lt;/span&gt;" style="text;html=1;align=center;verticalAlign=middle;resizable=0;points=[];autosize=1;strokeColor=none;fillColor=none;" vertex="1" parent="1">
          <mxGeometry x="299.5" y="300" width="80" height="30" as="geometry" />
        </mxCell>
        <mxCell id="408nA-Bblptvo8XibSW0-12" value="" style="html=1;points=[[0,0,0,0,5],[0,1,0,0,-5],[1,0,0,0,5],[1,1,0,0,-5]];perimeter=orthogonalPerimeter;outlineConnect=0;targetShapes=umlLifeline;portConstraint=eastwest;newEdgeStyle={&quot;curved&quot;:0,&quot;rounded&quot;:0};" vertex="1" parent="1">
          <mxGeometry x="215.5" y="220" width="10" height="210" as="geometry" />
        </mxCell>
        <mxCell id="408nA-Bblptvo8XibSW0-13" value="" style="endArrow=none;dashed=1;html=1;rounded=0;entryX=0.5;entryY=1;entryDx=0;entryDy=0;" edge="1" parent="1" source="408nA-Bblptvo8XibSW0-31">
          <mxGeometry width="50" height="50" relative="1" as="geometry">
            <mxPoint x="440" y="500" as="sourcePoint" />
            <mxPoint x="439.5" y="200" as="targetPoint" />
          </mxGeometry>
        </mxCell>
        <mxCell id="408nA-Bblptvo8XibSW0-14" value="" style="endArrow=classic;html=1;rounded=0;" edge="1" parent="1" source="408nA-Bblptvo8XibSW0-23">
          <mxGeometry width="50" height="50" relative="1" as="geometry">
            <mxPoint x="220" y="380" as="sourcePoint" />
            <mxPoint x="440" y="380" as="targetPoint" />
          </mxGeometry>
        </mxCell>
        <mxCell id="408nA-Bblptvo8XibSW0-15" value="" style="endArrow=classic;html=1;rounded=0;" edge="1" parent="1">
          <mxGeometry width="50" height="50" relative="1" as="geometry">
            <mxPoint x="220" y="430" as="sourcePoint" />
            <mxPoint x="440" y="430" as="targetPoint" />
          </mxGeometry>
        </mxCell>
        <mxCell id="408nA-Bblptvo8XibSW0-17" value="&lt;span style=&quot;background-color: initial;&quot;&gt;moveInside()&lt;/span&gt;" style="text;html=1;align=center;verticalAlign=middle;resizable=0;points=[];autosize=1;strokeColor=none;fillColor=none;" vertex="1" parent="1">
          <mxGeometry x="295" y="240" width="90" height="30" as="geometry" />
        </mxCell>
        <mxCell id="408nA-Bblptvo8XibSW0-18" value="" style="endArrow=classic;html=1;rounded=0;" edge="1" parent="1">
          <mxGeometry width="50" height="50" relative="1" as="geometry">
            <mxPoint x="225.5" y="260" as="sourcePoint" />
            <mxPoint x="445.5" y="260" as="targetPoint" />
          </mxGeometry>
        </mxCell>
        <mxCell id="408nA-Bblptvo8XibSW0-19" value="closeDoor()" style="text;html=1;align=center;verticalAlign=middle;resizable=0;points=[];autosize=1;strokeColor=none;fillColor=none;" vertex="1" parent="1">
          <mxGeometry x="285" y="400" width="90" height="30" as="geometry" />
        </mxCell>
        <mxCell id="408nA-Bblptvo8XibSW0-20" value="checkDoorStatus()" style="text;html=1;align=center;verticalAlign=middle;resizable=0;points=[];autosize=1;strokeColor=none;fillColor=none;" vertex="1" parent="1">
          <mxGeometry x="274.5" y="350" width="120" height="30" as="geometry" />
        </mxCell>
        <mxCell id="408nA-Bblptvo8XibSW0-28" value="" style="endArrow=classic;html=1;rounded=0;" edge="1" parent="1" target="408nA-Bblptvo8XibSW0-23">
          <mxGeometry width="50" height="50" relative="1" as="geometry">
            <mxPoint x="220" y="380" as="sourcePoint" />
            <mxPoint x="440" y="380" as="targetPoint" />
          </mxGeometry>
        </mxCell>
        <mxCell id="408nA-Bblptvo8XibSW0-23" value="" style="html=1;points=[[0,0,0,0,5],[0,1,0,0,-5],[1,0,0,0,5],[1,1,0,0,-5]];perimeter=orthogonalPerimeter;outlineConnect=0;targetShapes=umlLifeline;portConstraint=eastwest;newEdgeStyle={&quot;curved&quot;:0,&quot;rounded&quot;:0};" vertex="1" parent="1">
          <mxGeometry x="435" y="330" width="10" height="100" as="geometry" />
        </mxCell>
        <mxCell id="408nA-Bblptvo8XibSW0-30" value="" style="html=1;points=[[0,0,0,0,5],[0,1,0,0,-5],[1,0,0,0,5],[1,1,0,0,-5]];perimeter=orthogonalPerimeter;outlineConnect=0;targetShapes=umlLifeline;portConstraint=eastwest;newEdgeStyle={&quot;curved&quot;:0,&quot;rounded&quot;:0};" vertex="1" parent="1">
          <mxGeometry x="635" y="260" width="10" height="100" as="geometry" />
        </mxCell>
        <mxCell id="408nA-Bblptvo8XibSW0-32" value="" style="endArrow=none;dashed=1;html=1;rounded=0;entryX=0.5;entryY=1;entryDx=0;entryDy=0;" edge="1" parent="1" source="408nA-Bblptvo8XibSW0-23" target="408nA-Bblptvo8XibSW0-31">
          <mxGeometry width="50" height="50" relative="1" as="geometry">
            <mxPoint x="440" y="330" as="sourcePoint" />
            <mxPoint x="439.5" y="200" as="targetPoint" />
          </mxGeometry>
        </mxCell>
        <mxCell id="408nA-Bblptvo8XibSW0-31" value="" style="html=1;points=[[0,0,0,0,5],[0,1,0,0,-5],[1,0,0,0,5],[1,1,0,0,-5]];perimeter=orthogonalPerimeter;outlineConnect=0;targetShapes=umlLifeline;portConstraint=eastwest;newEdgeStyle={&quot;curved&quot;:0,&quot;rounded&quot;:0};" vertex="1" parent="1">
          <mxGeometry x="435" y="200" width="10" height="80" as="geometry" />
        </mxCell>
      </root>
    </mxGraphModel>
  </diagram>
</mxfile>
